<?xml version="1.0" encoding="utf-8"?>

<!-- Uploaded to: SVG Repo, www.svgrepo.com, Generator: SVG Repo Mixer Tools -->
<svg width="75px" height="75px" viewBox="0 0 20 20" xmlns="http://www.w3.org/2000/svg">

<rect x="0" fill="none" width="20" height="20"/>

<g>

<path d="M4 16v-2H2v2H1v-5h1v2h2v-2h1v5H4zM7 16v-4H5.6v-1h3.7v1H8v4H7zM10 16v-5h1l1.4 3.4h.1L14 11h1v5h-1v-3.1h-.1l-1.1 2.5h-.6l-1.1-2.5H11V16h-1zM19 16h-3v-5h1v4h2v1zM9.4 4.2L7.1 6.5l2.3 2.3-.6 1.2-3.5-3.5L8.8 3l.6 1.2zm1.2 4.6l2.3-2.3-2.3-2.3.6-1.2 3.5 3.5-3.5 3.5-.6-1.2z" fill="url(#paint0_linear_103_27)"/>

</g>
<defs>
<linearGradient id="paint0_linear_103_27" x1="20.4933" y1="9.12708" x2="20.4933" y2="25.3208" gradientUnits="userSpaceOnUse">
<stop stop-color="#F57722"/>
<stop offset="1" stop-color="#FAF0E6"/>
</linearGradient>
</defs>

</svg>