<?xml version="1.0" encoding="utf-8"?><!-- Uploaded to: SVG Repo, www.svgrepo.com, Generator: SVG Repo Mixer Tools -->
<svg fill="none" width="75px" height="75px" viewBox="0 0 75 75" role="img" xmlns="http://www.w3.org/2000/svg">
<title>Tailwind CSS icon</title>
<path d="M12.001,4.8c-3.2,0-5.2,1.6-6,4.8c1.2-1.6,2.6-2.2,4.2-1.8c0.913,0.228,1.565,0.89,2.288,1.624 C13.666,10.618,15.027,12,18.001,12c3.2,0,5.2-1.6,6-4.8c-1.2,1.6-2.6,2.2-4.2,1.8c-0.913-0.228-1.565-0.89-2.288-1.624 C16.337,6.182,14.976,4.8,12.001,4.8z M6.001,12c-3.2,0-5.2,1.6-6,4.8c1.2-1.6,2.6-2.2,4.2-1.8c0.913,0.228,1.565,0.89,2.288,1.624 c1.177,1.194,2.538,2.576,5.512,2.576c3.2,0,5.2-1.6,6-4.8c-1.2,1.6-2.6,2.2-4.2,1.8c-0.913-0.228-1.565-0.89-2.288-1.624 C10.337,13.382,8.976,12,6.001,12z" fill="url(#paint0_linear_103_27)"/>
<defs>
<linearGradient id="paint0_linear_103_27" x1="37.4933" y1="9.12708" x2="37.4933" y2="65.3208" gradientUnits="userSpaceOnUse">
<stop stop-color="#F57722"/>
<stop offset="1" stop-color="#FAF0E6"/>
</linearGradient>
</defs>
</svg>